# xmcd
#
# Track frame offsets:
#	150
#	20740
#	40454
#	61710
#	86443
#	104857
#	125425
#	143009
#	160195
#	185173
#	200141
#	215119
#
# Disc length: 3089 seconds
#
# Revision: 3
# Processed by: cddbd v1.5.2PL0 Copyright (c) Steve Scherf et al.
# Submitted via: EasyCDDAExtractor 16.0.8.2
#
DISCID=b90c0f0c
DTITLE=Μαριώ - Μπιτ Παζάρ-Μαριώ
DYEAR=2004
DGENRE=Έντεχνη
TTITLE0=Μαριώ - Το ρόδο της ερήμου [Λουδοβίκος Ανωγείων]
TTITLE1=Μαριώ - Μπιτ Παζάρ [Λουδοβίκος Ανωγείων]
TTITLE2=Μαριώ - Ο Σαλής [Λουδοβίκος Ανωγείων]
TTITLE3=Μαριώ - Ο δρόμος της αγάπης [Λουδοβίκος Ανωγείων]
TTITLE4=Μαριώ - Ήρθες που σε περίμενα [Λουδ. Ανωγ.-Ζαχαρένια Σαλούστρου κ παρ.
TTITLE4=]
TTITLE5=Μαριώ - Αφού ζητάς [Λουδοβίκος Ανωγείων-Πόπη Νικηφόρου κ παρ.]
TTITLE6=Λουδοβίκος των Ανωγείων-Μαριώ - Η εξομολόγηση [Λουδοβίκος Ανωγείων]
TTITLE7=Μαριώ - Μην την κρύβεις την αγάπη [Λουδοβίκος Ανωγείων]
TTITLE8=Μαριώ - Ποτέ μην πεις [Λουδοβίκος Ανωγείων-Φίλιππος Γράψας]
TTITLE9=Λουδοβίκος των Ανωγείων - Το κερί [Λουδοβίκος Ανωγείων-Φίλιππος Γράψας
TTITLE9=]
TTITLE10=Μαριώ - Ο Κωνσταντής [Λουδοβίκος Ανωγείων-στ. παραδοσιακοί]
TTITLE11=Μαριώ - Άτιτλο [Λουδοβίκος Ανωγείων]
EXTD=
EXTT0=
EXTT1=
EXTT2=
EXTT3=
EXTT4=
EXTT5=
EXTT6=
EXTT7=
EXTT8=
EXTT9=
EXTT10=
EXTT11=
PLAYORDER=
